<svg xmlns="http://www.w3.org/2000/svg" xmlns:xlink="http://www.w3.org/1999/xlink" width="1366" height="748" viewBox="0 0 1366 748">
  <defs>
    <linearGradient id="linear-gradient" x1="0.856" y1="0.093" x2="0.514" y2="0.332" gradientUnits="objectBoundingBox">
      <stop offset="0" stop-color="#ff1688"/>
      <stop offset="1" stop-color="#fe7e01"/>
    </linearGradient>
    <clipPath id="clip-path">
      <rect id="Rectangle_26731" data-name="Rectangle 26731" width="1366" height="748" transform="translate(0 3444)" fill="#fff" stroke="#707070" stroke-width="1"/>
    </clipPath>
    <filter id="Path_5951" x="-675.879" y="-171.556" width="2459.067" height="2050.29" filterUnits="userSpaceOnUse">
      <feOffset dx="-100" dy="-103" input="SourceAlpha"/>
      <feGaussianBlur stdDeviation="23" result="blur"/>
      <feFlood flood-color="#0051ff" flood-opacity="0.659"/>
      <feComposite operator="in" in2="blur"/>
      <feComposite in="SourceGraphic"/>
    </filter>
    <clipPath id="clip-path-2">
      <path id="Path_5952" data-name="Path 5952" d="M5021.348,3246.514s170.91,15.695,263.36-65.234,139.887-225.331,407.721-306.025,346.241-247.011,346.241-247.011l-745.262,226.588Z" transform="translate(-4451 -411)" fill="url(#linear-gradient)"/>
    </clipPath>
  </defs>
  <g id="Mask_Group_124" data-name="Mask Group 124" transform="translate(0 -3444)" clip-path="url(#clip-path)">
    <g transform="matrix(1, 0, 0, 1, 0, 3444)" filter="url(#Path_5951)">
      <path id="Path_5951-2" data-name="Path 5951" d="M1833.672,2983.966c353.239-143.1,469.806,294.613,908.162,281.48,255.661-14,231.618-237.473,404.2-347.738s420.809.956,667.6-248.341,142.61,649.621,0,1093.417-461.014,216.1-921.043,607.009-1016.205-172.253-1048.5-369.032S1480.434,3127.069,1833.672,2983.966Z" transform="translate(-2179 -2626)" fill="#fff"/>
    </g>
    <g id="Mask_Group_4" data-name="Mask Group 4" transform="translate(-2 1243)" clip-path="url(#clip-path-2)">
      <path id="Path_5953" data-name="Path 5953" d="M1833.672,2983.966c353.239-143.1,469.806,294.613,908.162,281.48,255.661-14,231.618-237.473,404.2-347.738s420.809.956,667.6-248.341,142.61,649.621,0,1093.417-461.014,216.1-921.043,607.009-1016.205-172.253-1048.5-369.032S1480.434,3127.069,1833.672,2983.966Z" transform="translate(-2177 -425)" fill="url(#linear-gradient)"/>
    </g>
  </g>
</svg>
