<svg xmlns="http://www.w3.org/2000/svg" xmlns:xlink="http://www.w3.org/1999/xlink" width="1037" height="356" viewBox="0 0 1037 356">
  <defs>
    <linearGradient id="linear-gradient" x1="0.147" y1="0.147" x2="0.807" y2="0.807" gradientUnits="objectBoundingBox">
      <stop offset="0" stop-color="#00c1ec"/>
      <stop offset="1" stop-color="aqua"/>
    </linearGradient>
    <linearGradient id="linear-gradient-2" x1="0.211" y1="0.208" x2="0.854" y2="0.853" gradientUnits="objectBoundingBox">
      <stop offset="0" stop-color="#112da4"/>
      <stop offset="1" stop-color="#875de6"/>
    </linearGradient>
    <linearGradient id="linear-gradient-3" x1="0.148" y1="0.151" x2="0.855" y2="0.885" gradientUnits="objectBoundingBox">
      <stop offset="0" stop-color="#c5006a"/>
      <stop offset="0.964" stop-color="#fc2e8a"/>
      <stop offset="1" stop-color="#ff308c"/>
    </linearGradient>
    <linearGradient id="linear-gradient-4" x1="0.097" y1="0.176" x2="0.804" y2="0.9" gradientUnits="objectBoundingBox">
      <stop offset="0" stop-color="#fbd800"/>
      <stop offset="0.319" stop-color="#fcc50a"/>
      <stop offset="0.69" stop-color="#feb713"/>
      <stop offset="1" stop-color="#ffb216"/>
    </linearGradient>
    <linearGradient id="linear-gradient-5" x1="0.5" x2="0.5" y2="1" gradientUnits="objectBoundingBox">
      <stop offset="0" stop-color="#56f1fa"/>
      <stop offset="1" stop-color="#46c4ea"/>
    </linearGradient>
    <linearGradient id="linear-gradient-6" x1="0.5" x2="0.5" y2="1" gradientUnits="objectBoundingBox">
      <stop offset="0" stop-color="#f02d87"/>
      <stop offset="1" stop-color="#bf046b"/>
    </linearGradient>
    <linearGradient id="linear-gradient-7" x1="0.5" x2="0.5" y2="1" gradientUnits="objectBoundingBox">
      <stop offset="0" stop-color="#7f5cdd"/>
      <stop offset="1" stop-color="#2935a9"/>
    </linearGradient>
    <linearGradient id="linear-gradient-8" x1="0.5" x2="0.5" y2="1" gradientUnits="objectBoundingBox">
      <stop offset="0" stop-color="#f6d436"/>
      <stop offset="1" stop-color="#f7bb37"/>
    </linearGradient>
  </defs>
  <g id="Group_9708" data-name="Group 9708" transform="translate(-103 -5004)">
    <g id="Group_2428" data-name="Group 2428" transform="translate(322.487 4791.926)">
      <g id="Layer_1" data-name="Layer 1" transform="translate(27.513 279.074)">
        <g id="Group_2426" data-name="Group 2426">
          <g id="Group_2425" data-name="Group 2425" transform="translate(85.539 82.679)">
            <g id="Group_2424" data-name="Group 2424">
              <path id="Path_16551" data-name="Path 16551" d="M53.434,296.694a1.2,1.2,0,0,1,1.312-.984h1.168a1.359,1.359,0,0,1,1.242.656L73.214,327.3h.219L89.49,296.366a1.285,1.285,0,0,1,1.242-.656H91.9a1.2,1.2,0,0,1,1.312.984l8.613,44.048c.219.914-.363,1.506-1.312,1.506H93.869a1.566,1.566,0,0,1-1.387-.984l-4.3-24.839h-.219L75.187,342.183a1.254,1.254,0,0,1-1.242.721H72.632a1.32,1.32,0,0,1-1.242-.721L58.468,316.424H58.25L54.02,341.264a1.387,1.387,0,0,1-1.317.984h-6.57a1.248,1.248,0,0,1-1.387-1.506Z" transform="translate(-44.725 -295.71)" fill="#001f5f"/>
            </g>
          </g>
          <path id="Path_16552" data-name="Path 16552" d="M52.851,311" transform="translate(73.075 -152.332)" fill="none" stroke="#707070" stroke-linecap="round" stroke-linejoin="round" stroke-width="10"/>
          <path id="Path_16553" data-name="Path 16553" d="M57.442,114.888a57.444,57.444,0,1,1,57.447-57.442,5,5,0,1,1-10.009,0A47.368,47.368,0,1,0,68.867,103.5a5,5,0,0,1,2.405,9.716A57.856,57.856,0,0,1,57.442,114.888Z" transform="matrix(-0.998, -0.07, 0.07, -0.998, 166.598, 169.071)" fill="url(#linear-gradient)"/>
          <path id="Path_16554" data-name="Path 16554" d="M76.64,152.913A76.709,76.709,0,0,1,.875,64.653a5,5,0,0,1,9.9,1.506A66.639,66.639,0,1,0,143.276,76.273,66.393,66.393,0,0,0,83.459,9.985,5.006,5.006,0,1,1,84.473.025,76.645,76.645,0,0,1,76.64,152.913Z" transform="translate(189.943 184.402) rotate(180)" fill="url(#linear-gradient-2)"/>
          <path id="Path_16555" data-name="Path 16555" d="M161.355,464.755a5.006,5.006,0,0,1-1.953-9.617,85.106,85.106,0,1,0-100.789-26.8,5,5,0,1,1-7.952,6.073,94.243,94.243,0,0,1-19.487-57.685A95.106,95.106,0,1,1,163.3,464.357,5.041,5.041,0,0,1,161.355,464.755Z" transform="translate(-12.979 -268.967)" fill="url(#linear-gradient-3)"/>
          <path id="Path_16556" data-name="Path 16556" d="M140.811,500.139a113.322,113.322,0,0,1-35.877-220.806,5,5,0,1,1,3.166,9.492A103.308,103.308,0,1,0,244.1,386.836a5,5,0,1,1,10.009,0A113.434,113.434,0,0,1,140.811,500.139Z" transform="translate(-27.513 -279.074)" fill="url(#linear-gradient-4)"/>
        </g>
      </g>
      <g id="Layer_2" data-name="Layer 2" transform="translate(289.192 313.411)">
        <g id="Group_2427" data-name="Group 2427">
          <path id="Path_16557" data-name="Path 16557" d="M105.418,289.159a3.571,3.571,0,0,1,3.812-3.176h3.384a3.857,3.857,0,0,1,3.6,2.117L162.775,388h.636l46.563-99.9a3.649,3.649,0,0,1,3.6-2.117h3.384a3.571,3.571,0,0,1,3.812,3.176l24.974,142.228c.636,2.962-1.054,4.87-3.807,4.87H222.677a4.593,4.593,0,0,1-4.026-3.176l-12.484-80.219h-.636L168.5,436.043a3.6,3.6,0,0,1-3.6,2.326H161.08a3.8,3.8,0,0,1-3.593-2.326l-37.463-83.181h-.636l-12.276,80.219a4.1,4.1,0,0,1-3.812,3.176H84.251c-2.748,0-4.443-1.908-4.021-4.87Z" transform="translate(-80.166 -285.983)" fill="#001f5f"/>
          <path id="Path_16558" data-name="Path 16558" d="M193.546,285.983c21.38,0,36.827,6.774,51.219,19.681a3.936,3.936,0,0,1,.209,5.929l-12.907,13.334c-1.481,1.695-3.6,1.695-5.293,0a50.074,50.074,0,0,0-32.592-12.489c-27.091,0-47.2,22.648-47.2,49.316,0,26.455,20.317,48.893,47.413,48.893,12.693,0,23.488-4.87,32.379-12.067a3.9,3.9,0,0,1,5.293,0l13.12,13.548c1.695,1.481,1.272,4.229-.214,5.715-14.388,13.965-32.587,20.525-51.428,20.525-42.333,0-76.407-33.651-76.407-75.979A76.234,76.234,0,0,1,193.546,285.983Z" transform="translate(66.612 -285.983)" fill="#001f5f"/>
          <path id="Path_16559" data-name="Path 16559" d="M222.165,285.983c19.049,0,37.249,7.405,51.637,19.681a4.1,4.1,0,0,1,.214,5.929L260.9,325.349c-1.695,1.695-3.6,1.695-5.507,0a47.982,47.982,0,0,0-31.956-12.276c-26.46,0-47.408,22.648-47.408,49.1,0,26.246,20.948,48.471,47.621,48.471a66.236,66.236,0,0,0,25.187-5.293V387.363H231.9a3.848,3.848,0,0,1-4.026-3.807V366.833a3.894,3.894,0,0,1,4.026-4.021H272.54a3.979,3.979,0,0,1,3.807,4.021v54.181a4.081,4.081,0,0,1-1.695,3.389s-21.8,13.757-52.487,13.757a76.089,76.089,0,0,1,0-152.177Z" transform="translate(181.904 -285.983)" fill="#001f5f"/>
        </g>
      </g>
    </g>
    <g id="Rectangle_26728" data-name="Rectangle 26728" transform="translate(282 5004)" fill="#fef1f1" stroke="#ff5454" stroke-width="1">
      <rect width="68" height="356" stroke="none"/>
      <rect x="0.5" y="0.5" width="67" height="355" fill="none"/>
    </g>
    <g id="Rectangle_26729" data-name="Rectangle 26729" transform="translate(349 5004)" fill="#fef1f1" stroke="#ff5454" stroke-width="1">
      <rect width="724" height="68" stroke="none"/>
      <rect x="0.5" y="0.5" width="723" height="67" fill="none"/>
    </g>
    <g id="Rectangle_26730" data-name="Rectangle 26730" transform="translate(349 5292)" fill="#fef1f1" stroke="#ff5454" stroke-width="1">
      <rect width="724" height="68" stroke="none"/>
      <rect x="0.5" y="0.5" width="723" height="67" fill="none"/>
    </g>
    <g id="Rectangle_26731" data-name="Rectangle 26731" transform="translate(611 5259)" fill="none" stroke="#ff5454" stroke-width="1" stroke-dasharray="10">
      <rect width="462" height="34" stroke="none"/>
      <rect x="0.5" y="0.5" width="461" height="33" fill="none"/>
    </g>
    <g id="Rectangle_26757" data-name="Rectangle 26757" transform="translate(611 5071)" fill="none" stroke="#ff5454" stroke-width="1" stroke-dasharray="11">
      <rect width="462" height="34" stroke="none"/>
      <rect x="0.5" y="0.5" width="461" height="33" fill="none"/>
    </g>
    <g id="Rectangle_26741" data-name="Rectangle 26741" transform="translate(611 5004)" fill="none" stroke="#ff5454" stroke-width="1" stroke-dasharray="10">
      <rect width="169" height="356" stroke="none"/>
      <rect x="0.5" y="0.5" width="168" height="355" fill="none"/>
    </g>
    <g id="Rectangle_26738" data-name="Rectangle 26738" transform="translate(1072 5004)" fill="#fef1f1" stroke="#ff5454" stroke-width="1">
      <rect width="68" height="356" stroke="none"/>
      <rect x="0.5" y="0.5" width="67" height="355" fill="none"/>
    </g>
    <g id="Rectangle_26737" data-name="Rectangle 26737" transform="translate(1072 5004)" fill="#fef1f1" stroke="#ff5454" stroke-width="1" opacity="0.84">
      <rect width="68" height="68" stroke="none"/>
      <rect x="0.5" y="0.5" width="67" height="67" fill="none"/>
    </g>
    <g id="Rectangle_26756" data-name="Rectangle 26756" transform="translate(282 5004)" fill="#fef1f1" stroke="#ff5454" stroke-width="1" opacity="0.84">
      <rect width="68" height="68" stroke="none"/>
      <rect x="0.5" y="0.5" width="67" height="67" fill="none"/>
    </g>
    <g id="Rectangle_26754" data-name="Rectangle 26754" transform="translate(1072 5292)" fill="#fef1f1" stroke="#ff5454" stroke-width="1" opacity="0.84">
      <rect width="68" height="68" stroke="none"/>
      <rect x="0.5" y="0.5" width="67" height="67" fill="none"/>
    </g>
    <g id="Rectangle_26755" data-name="Rectangle 26755" transform="translate(282 5292)" fill="#fef1f1" stroke="#ff5454" stroke-width="1" opacity="0.84">
      <rect width="68" height="68" stroke="none"/>
      <rect x="0.5" y="0.5" width="67" height="67" fill="none"/>
    </g>
    <circle id="Ellipse_2010" data-name="Ellipse 2010" cx="9.5" cy="9.5" r="9.5" transform="translate(186 5124)" fill="url(#linear-gradient-5)"/>
    <circle id="Ellipse_2011" data-name="Ellipse 2011" cx="9.5" cy="9.5" r="9.5" transform="translate(186 5157)" fill="url(#linear-gradient-6)"/>
    <circle id="Ellipse_2012" data-name="Ellipse 2012" cx="9.5" cy="9.5" r="9.5" transform="translate(186 5190)" fill="url(#linear-gradient-7)"/>
    <circle id="Ellipse_2013" data-name="Ellipse 2013" cx="9.5" cy="9.5" r="9.5" transform="translate(186 5223)" fill="url(#linear-gradient-8)"/>
    <text id="Service_1" data-name="Service 1" transform="translate(137 5138)" fill="#0a225e" font-size="15" font-family="Poppins-Regular, Poppins"><tspan x="-31.507" y="0">Service 1</tspan></text>
    <text id="Service_2" data-name="Service 2" transform="translate(137 5171)" fill="#0a225e" font-size="15" font-family="Poppins-Regular, Poppins"><tspan x="-33.42" y="0">Service 2</tspan></text>
    <text id="Service_3" data-name="Service 3" transform="translate(137 5204)" fill="#0a225e" font-size="15" font-family="Poppins-Regular, Poppins"><tspan x="-33.525" y="0">Service 3</tspan></text>
    <text id="Service_4" data-name="Service 4" transform="translate(137 5237)" fill="#0a225e" font-size="15" font-family="Poppins-Regular, Poppins"><tspan x="-33.825" y="0">Service 4</tspan></text>
    <line id="Line_3" data-name="Line 3" y1="18" x2="155" transform="translate(205.5 5214.5)" fill="none" stroke="#08205d" stroke-width="1"/>
    <line id="Line_4" data-name="Line 4" y1="5" x2="185" transform="translate(205.5 5192.5)" fill="none" stroke="#08205d" stroke-width="1"/>
    <line id="Line_5" data-name="Line 5" y1="13" x2="171" transform="translate(205.5 5152.5)" fill="none" stroke="#08205d" stroke-width="1"/>
    <line id="Line_6" data-name="Line 6" y1="4" x2="249" transform="translate(205.5 5128.5)" fill="none" stroke="#08205d" stroke-width="1"/>
  </g>
</svg>
