<svg xmlns="http://www.w3.org/2000/svg" xmlns:xlink="http://www.w3.org/1999/xlink" width="67.597" height="57.13" viewBox="0 0 67.597 57.13">
  <defs>
    <linearGradient id="linear-gradient" x1="0.5" x2="0.5" y2="1" gradientUnits="objectBoundingBox">
      <stop offset="0" stop-color="#ff1688"/>
      <stop offset="1" stop-color="#fe7e01"/>
    </linearGradient>
  </defs>
  <g id="Group_3453" data-name="Group 3453" transform="translate(-135 -563.524)">
    <path id="Path_4084" data-name="Path 4084" d="M41.568,51.678a17.989,17.989,0,0,1,2.461-3.723c7.911-9.226,26.3-6.693,34.982,1.1C88.639,57.7,87.4,71.828,87.138,74.241c-.9,8.4-5.588,21.987-15.7,24.54-4.7,1.186-9.117-.377-12.938-3.172a8.143,8.143,0,0,0-10.056.33,13.91,13.91,0,0,1-3.769,2.226,13.3,13.3,0,0,1-7.084.608c-9.3-1.5-18.168-12.339-17.847-22.271C20.11,65.1,29.219,55.261,41.568,51.678Z" transform="translate(115.265 521.472)" fill="url(#linear-gradient)"/>
    <g id="Group_3449" data-name="Group 3449" transform="translate(64.078 489.335)">
      <path id="Path_5875" data-name="Path 5875" d="M94.922,90.16v30a2.548,2.548,0,0,0,2.415,2.659h14.6a2.548,2.548,0,0,0,2.415-2.659v-30a2.549,2.549,0,0,0-2.415-2.66h-14.6A2.549,2.549,0,0,0,94.922,90.16Zm1.07,3.244h17.294V116.18H95.992Zm15.949,28.349h-14.6a1.483,1.483,0,0,1-1.344-1.589V117.25h17.294v2.915A1.483,1.483,0,0,1,111.942,121.753ZM97.337,88.57h14.6a1.484,1.484,0,0,1,1.344,1.59v2.174H95.992V90.16A1.484,1.484,0,0,1,97.337,88.57Z" fill="#fff"/>
      <path id="Path_5876" data-name="Path 5876" d="M102.457,90.752h3.378a.535.535,0,1,0,0-1.07h-3.378a.535.535,0,1,0,0,1.07Z" transform="translate(0.493 0.154)" fill="#fff"/>
      <path id="Path_5877" data-name="Path 5877" d="M104.072,116.336a1.073,1.073,0,1,0,1.09,1.073A1.082,1.082,0,0,0,104.072,116.336Z" transform="translate(0.568 2.031)" fill="#fff"/>
    </g>
  </g>
</svg>
