<svg xmlns="http://www.w3.org/2000/svg" xmlns:xlink="http://www.w3.org/1999/xlink" width="66.419" height="51.555" viewBox="0 0 66.419 51.555">
  <defs>
    <linearGradient id="linear-gradient" x1="0.5" x2="0.5" y2="1" gradientUnits="objectBoundingBox">
      <stop offset="0" stop-color="#ff1688"/>
      <stop offset="1" stop-color="#fe7e01"/>
    </linearGradient>
  </defs>
  <g id="Group_3451" data-name="Group 3451" transform="translate(-136 -708.53)">
    <path id="Path_5880" data-name="Path 5880" d="M74.367,110.194c-7.044-12.018.07-28.691,11.98-35.9,13.209-8,28.22-1.884,30.765-.787,8.857,3.814,21.937,13.647,20.811,25.927-1.25,13.648-19.124,20.251-29.182,21.787C106.105,121.618,82.945,124.829,74.367,110.194Z" transform="translate(64.427 638.296)" fill="url(#linear-gradient)"/>
    <path id="Path_5874" data-name="Path 5874" d="M360.323,93.1a.483.483,0,0,0-.156-.139c-.009-.006-.013-.016-.022-.021h-.01a.484.484,0,0,0-.208-.048H328a.484.484,0,0,0-.208.048h-.01c-.009,0-.013.015-.022.021a.483.483,0,0,0-.156.139.618.618,0,0,0-.036.053.494.494,0,0,0-.068.237v21.173a.5.5,0,0,0,.5.5h31.929a.5.5,0,0,0,.5-.5V93.389a.494.494,0,0,0-.068-.237A.618.618,0,0,0,360.323,93.1Zm-1.831.789-14.529,11.479L329.435,93.888Zm.937,20.175H328.5V94.419L343.654,106.4a.5.5,0,0,0,.619,0l15.156-11.977Z" transform="translate(-175.5 630.285)" fill="#fff"/>
  </g>
</svg>
