<svg xmlns="http://www.w3.org/2000/svg" width="14.204" height="9.3" viewBox="0 0 14.204 9.3">
  <g id="Group_3482" data-name="Group 3482" transform="translate(914.455 -460.77) rotate(90)">
    <path id="Path_2966" data-name="Path 2966" d="M461.306,911.329l2.7-2.7a1.831,1.831,0,0,0,0-2.59l-2.662-2.663a1.832,1.832,0,0,1,0-2.59h0a1.832,1.832,0,0,1,2.59,0l5.849,5.851a.986.986,0,0,1,0,1.394l-5.885,5.887a1.832,1.832,0,0,1-2.59,0h0A1.832,1.832,0,0,1,461.306,911.329Z" transform="translate(0 0)" fill="#382153"/>
  </g>
</svg>
