<svg xmlns="http://www.w3.org/2000/svg" width="27.687" height="25.907" viewBox="0 0 27.687 25.907">
  <g id="Group_3438" data-name="Group 3438" transform="translate(0 0)">
    <path id="Path_2953" data-name="Path 2953" d="M-33.7,88.21l-.394,3.746a1.187,1.187,0,0,0,1.056,1.305l.755.079Zm2.508-12.342a1.194,1.194,0,0,0-1.3,1.058l-.226,2.126,9.124-2.408Zm13.333,18.946,8.167.833a1.189,1.189,0,0,0,1.306-1.058l.246-2.351ZM-7.85,78.253l-.686-.068,1.373,4.973.383-3.6A1.181,1.181,0,0,0-7.85,78.253Z" transform="translate(34.46 -74.705)" fill="#fff" fill-rule="evenodd"/>
    <path id="Path_2954" data-name="Path 2954" d="M-6.784,89.4l-3.735-13.568a1.366,1.366,0,0,0-1.654-.956L-33.414,80.49a1.346,1.346,0,0,0-.956,1.665l3.735,13.579a1.354,1.354,0,0,0,1.474.979,4.637,4.637,0,0,0,3.364,1.44,4.709,4.709,0,0,0,2.273-.585l3.364,2.846a1.459,1.459,0,0,0,.911.326,1.411,1.411,0,0,0,1.069-.5,1.4,1.4,0,0,0-.169-1.98L-21.6,95.52a4.251,4.251,0,0,0,.338-.889L-7.74,91.065A1.346,1.346,0,0,0-6.784,89.4Zm-6.4-11.521a2.336,2.336,0,0,1,2.171,1.463l-2.97,2.959Zm-6.942,9.113a.56.56,0,0,1-.405.686l-4.5,1.181a4.3,4.3,0,0,0-.765-.068,4.612,4.612,0,0,0-2.925,1.035l-1.024.27a.775.775,0,0,1-.146.022.561.561,0,0,1-.54-.428.567.567,0,0,1,.394-.686l9.225-2.419A.565.565,0,0,1-20.127,86.993ZM-32.019,84.27a.562.562,0,0,1,.394-.686l9.225-2.419a.56.56,0,0,1,.686.405.565.565,0,0,1-.405.686l-9.214,2.419a.641.641,0,0,1-.146.011A.551.551,0,0,1-32.019,84.27Zm.5,1.778a.562.562,0,0,1,.394-.686l9.225-2.419a.562.562,0,0,1,.686.394.56.56,0,0,1-.405.686l-9.214,2.419a.658.658,0,0,1-.146.022A.564.564,0,0,1-31.524,86.047Zm.5,1.766a.56.56,0,0,1,.405-.686l9.214-2.419a.56.56,0,0,1,.686.405.565.565,0,0,1-.405.686l-9.214,2.419a.641.641,0,0,1-.146.011A.551.551,0,0,1-31.029,87.814Zm7.673,7.38a2.634,2.634,0,0,1-.326.394,3.034,3.034,0,0,1-1.283.765,3.306,3.306,0,0,1-.833.113,3,3,0,0,1-2.993-2.993A2.991,2.991,0,0,1-25.8,90.48,2.991,2.991,0,0,1-22.8,93.473,2.935,2.935,0,0,1-23.356,95.194Zm-.394-5.929,3.431-.9a.565.565,0,0,1,.686.405.565.565,0,0,1-.405.686l-2.509.664A4.34,4.34,0,0,0-23.75,89.265Zm4.208,1.958-1.913.506a4.351,4.351,0,0,0-.574-1.024l2.205-.574a.56.56,0,0,1,.686.405A.56.56,0,0,1-19.542,91.223Zm6.222-4.275a4.108,4.108,0,0,1-5.142-2.666A4.089,4.089,0,0,1-15.8,79.14a3.584,3.584,0,0,1,1.271-.191l-.18,5,3.533-3.2a3.985,3.985,0,0,1,.518,1.058A4.112,4.112,0,0,1-13.321,86.948Z" transform="translate(34.421 -74.834)" fill="#fff"/>
  </g>
</svg>
