<svg xmlns="http://www.w3.org/2000/svg" xmlns:xlink="http://www.w3.org/1999/xlink" width="44" height="43" viewBox="0 0 44 43">
  <defs>
    <linearGradient id="linear-gradient" x1="0.5" y1="1" x2="0.5" gradientUnits="objectBoundingBox">
      <stop offset="0" stop-color="#bcc1e8"/>
      <stop offset="0.18" stop-color="#cdd1ee"/>
      <stop offset="0.455" stop-color="#e1e3f5"/>
      <stop offset="0.73" stop-color="#edeff9"/>
      <stop offset="1" stop-color="#f2f3fb"/>
    </linearGradient>
    <filter id="Path_917" x="13.39" y="6.714" width="26.101" height="25.938" filterUnits="userSpaceOnUse">
      <feOffset dy="2" input="SourceAlpha"/>
      <feGaussianBlur stdDeviation="1" result="blur"/>
      <feFlood flood-opacity="0.161"/>
      <feComposite operator="in" in2="blur"/>
      <feComposite in="SourceGraphic"/>
    </filter>
    <filter id="Path_918" x="6.129" y="13.726" width="26.101" height="25.938" filterUnits="userSpaceOnUse">
      <feOffset dy="2" input="SourceAlpha"/>
      <feGaussianBlur stdDeviation="1" result="blur-2"/>
      <feFlood flood-opacity="0.161"/>
      <feComposite operator="in" in2="blur-2"/>
      <feComposite in="SourceGraphic"/>
    </filter>
  </defs>
  <g id="Group_6997" data-name="Group 6997" transform="translate(1.018 0.469)">
    <ellipse id="Ellipse_2108" data-name="Ellipse 2108" cx="22" cy="21.5" rx="22" ry="21.5" transform="translate(-1.018 -0.469)" fill="url(#linear-gradient)"/>
    <g id="_6d-link" data-name="6d-link" transform="matrix(0.695, 0.719, -0.719, 0.695, 197.702, -751.127)">
      <g id="Group_2490" data-name="Group 2490" transform="translate(428.597 649.93)">
        <g transform="matrix(0.69, -0.72, 0.72, 0.69, -26.66, 14.47)" filter="url(#Path_917)">
          <g id="Path_917-2" data-name="Path 917" transform="matrix(0.69, 0.72, -0.72, 0.69, 198.72, -750.66)" fill="#fff">
            <path d="M 433.0155639648438 665.8948974609375 C 432.3591613769531 665.8948974609375 431.8251342773438 665.3609008789063 431.8251342773438 664.7044677734375 C 431.8251342773438 664.0480346679688 432.3591613769531 663.5140380859375 433.0155639648438 663.5140380859375 C 434.4224853515625 663.5140380859375 435.5670776367188 662.369384765625 435.5670776367188 660.96240234375 L 435.5670776367188 654.3485107421875 C 435.5670776367188 653.6676635742188 435.3016967773438 653.0330200195313 434.8198547363281 652.5614624023438 C 434.3333740234375 652.076171875 433.6937866210938 651.810791015625 433.0155639648438 651.810791015625 C 431.6162109375 651.810791015625 430.477783203125 652.94921875 430.477783203125 654.3485107421875 L 430.477783203125 657.6624755859375 C 430.477783203125 658.3189086914063 429.9437561035156 658.8529052734375 429.287353515625 658.8529052734375 C 428.6309814453125 658.8529052734375 428.0969848632813 658.3189086914063 428.0969848632813 657.6624755859375 L 428.0969848632813 654.3485107421875 C 428.0969848632813 651.6364135742188 430.3034362792969 649.429931640625 433.0155639648438 649.429931640625 C 434.3284301757813 649.429931640625 435.5639953613281 649.9407348632813 436.49462890625 650.8682861328125 C 437.4307250976563 651.785888671875 437.9478759765625 653.0228881835938 437.9478759765625 654.3485107421875 L 437.9478759765625 660.96240234375 C 437.9478759765625 663.6821899414063 435.7352600097656 665.8948974609375 433.0155639648438 665.8948974609375 Z" stroke="none"/>
            <path d="M 433.0155639648438 665.3948974609375 C 435.4581909179688 665.3948974609375 437.4478759765625 663.4051513671875 437.4478759765625 660.96240234375 L 437.4478759765625 654.3485107421875 C 437.4478759765625 653.1595458984375 436.9826049804688 652.0467529296875 436.1416625976563 651.222412109375 C 435.3048706054688 650.388427734375 434.1947631835938 649.929931640625 433.0155639648438 649.929931640625 C 430.5784301757813 649.929931640625 428.5969848632813 651.911376953125 428.5969848632813 654.3485107421875 L 428.5969848632813 657.6624755859375 C 428.5969848632813 658.044921875 428.9049072265625 658.3529052734375 429.287353515625 658.3529052734375 C 429.6685180664063 658.3529052734375 429.977783203125 658.044921875 429.977783203125 657.6624755859375 L 429.977783203125 654.3485107421875 C 429.977783203125 652.673583984375 431.3406372070313 651.310791015625 433.0155639648438 651.310791015625 C 433.8275146484375 651.310791015625 434.5896606445313 651.6256103515625 435.1695556640625 652.2041015625 C 435.7481079101563 652.770263671875 436.0670776367188 653.532470703125 436.0670776367188 654.3485107421875 L 436.0670776367188 660.96240234375 C 436.0670776367188 662.6456298828125 434.69873046875 664.0140380859375 433.0155639648438 664.0140380859375 C 432.6343994140625 664.0140380859375 432.3251342773438 664.3233642578125 432.3251342773438 664.7044677734375 C 432.3251342773438 665.0855712890625 432.6343994140625 665.3948974609375 433.0155639648438 665.3948974609375 M 433.0155639648438 666.3948974609375 C 432.0834655761719 666.3948974609375 431.3251342773438 665.6365966796875 431.3251342773438 664.7044677734375 C 431.3251342773438 663.7723388671875 432.0834655761719 663.0140380859375 433.0155639648438 663.0140380859375 C 434.1467590332031 663.0140380859375 435.0670776367188 662.0936889648438 435.0670776367188 660.96240234375 L 435.0670776367188 654.3485107421875 C 435.0670776367188 653.8032836914063 434.8551025390625 653.2955322265625 434.4701538085938 652.9188232421875 L 434.4667053222656 652.9154663085938 L 434.4633178710938 652.9120483398438 C 434.0746154785156 652.5243530273438 433.5604553222656 652.310791015625 433.0155639648438 652.310791015625 C 431.8919067382813 652.310791015625 430.977783203125 653.2249145507813 430.977783203125 654.3485107421875 L 430.977783203125 657.6624755859375 C 430.977783203125 658.5946044921875 430.2194519042969 659.3529052734375 429.287353515625 659.3529052734375 C 428.3552856445313 659.3529052734375 427.5969848632813 658.5946044921875 427.5969848632813 657.6624755859375 L 427.5969848632813 654.3485107421875 C 427.5969848632813 651.3607177734375 430.0277404785156 648.929931640625 433.0155639648438 648.929931640625 C 434.4603576660156 648.929931640625 435.820068359375 649.4915161132813 436.8447570800781 650.5112915039063 C 437.8786315917969 651.5263671875 438.4478759765625 652.8888549804688 438.4478759765625 654.3485107421875 L 438.4478759765625 660.96240234375 C 438.4478759765625 663.9578857421875 436.0109558105469 666.3948974609375 433.0155639648438 666.3948974609375 Z" stroke="none" fill="#fff"/>
          </g>
        </g>
      </g>
      <g id="Group_2491" data-name="Group 2491" transform="translate(428.597 660.024)">
        <g transform="matrix(0.69, -0.72, 0.72, 0.69, -26.66, 4.38)" filter="url(#Path_918)">
          <g id="Path_918-2" data-name="Path 918" transform="matrix(0.69, 0.72, -0.72, 0.69, 196.72, -748.72)" fill="#fff">
            <path d="M 433.0155639648438 673.204833984375 C 430.3034362792969 673.204833984375 428.0969848632813 670.9983520507813 428.0969848632813 668.2862548828125 L 428.0969848632813 661.6723022460938 C 428.0969848632813 658.95263671875 430.3034362792969 656.739990234375 433.0155639648438 656.739990234375 C 433.6719360351563 656.739990234375 434.2059326171875 657.2739868164063 434.2059326171875 657.9302978515625 C 434.2059326171875 658.5867309570313 433.6719360351563 659.1207275390625 433.0155639648438 659.1207275390625 C 431.6162109375 659.1207275390625 430.477783203125 660.265380859375 430.477783203125 661.6723022460938 L 430.477783203125 668.2862548828125 C 430.477783203125 669.685546875 431.6162109375 670.823974609375 433.0155639648438 670.823974609375 C 434.4224853515625 670.823974609375 435.5670776367188 669.685546875 435.5670776367188 668.2862548828125 L 435.5670776367188 664.972412109375 C 435.5670776367188 664.3161010742188 436.1011047363281 663.7821044921875 436.7575073242188 663.7821044921875 C 437.4138793945313 663.7821044921875 437.9478759765625 664.3161010742188 437.9478759765625 664.972412109375 L 437.9478759765625 668.2862548828125 C 437.9478759765625 670.9983520507813 435.7352600097656 673.204833984375 433.0155639648438 673.204833984375 Z" stroke="none"/>
            <path d="M 433.0155639648438 672.704833984375 C 435.4581909179688 672.704833984375 437.4478759765625 670.723388671875 437.4478759765625 668.2862548828125 L 437.4478759765625 664.972412109375 C 437.4478759765625 664.5899047851563 437.1385498046875 664.2821044921875 436.7575073242188 664.2821044921875 C 436.3750610351563 664.2821044921875 436.0670776367188 664.5899047851563 436.0670776367188 664.972412109375 L 436.0670776367188 668.2862548828125 C 436.0670776367188 669.961181640625 434.69873046875 671.323974609375 433.0155639648438 671.323974609375 C 431.3406372070313 671.323974609375 429.977783203125 669.961181640625 429.977783203125 668.2862548828125 L 429.977783203125 661.6723022460938 C 429.977783203125 659.9891967773438 431.3406372070313 658.6207275390625 433.0155639648438 658.6207275390625 C 433.3966064453125 658.6207275390625 433.7059326171875 658.3128662109375 433.7059326171875 657.9302978515625 C 433.7059326171875 657.5492553710938 433.3966064453125 657.239990234375 433.0155639648438 657.239990234375 C 430.5784301757813 657.239990234375 428.5969848632813 659.229736328125 428.5969848632813 661.6723022460938 L 428.5969848632813 668.2862548828125 C 428.5969848632813 670.723388671875 430.5784301757813 672.704833984375 433.0155639648438 672.704833984375 M 433.0155639648438 673.704833984375 C 430.0277404785156 673.704833984375 427.5969848632813 671.2740478515625 427.5969848632813 668.2862548828125 L 427.5969848632813 661.6723022460938 C 427.5969848632813 658.6769409179688 430.0277404785156 656.239990234375 433.0155639648438 656.239990234375 C 433.9476318359375 656.239990234375 434.7059326171875 656.998291015625 434.7059326171875 657.9302978515625 C 434.7059326171875 658.8624267578125 433.9476318359375 659.6207275390625 433.0155639648438 659.6207275390625 C 431.8919067382813 659.6207275390625 430.977783203125 660.5410766601563 430.977783203125 661.6723022460938 L 430.977783203125 668.2862548828125 C 430.977783203125 669.4098510742188 431.8919067382813 670.323974609375 433.0155639648438 670.323974609375 C 434.1467590332031 670.323974609375 435.0670776367188 669.4098510742188 435.0670776367188 668.2862548828125 L 435.0670776367188 664.972412109375 C 435.0670776367188 664.0403442382813 435.8254089355469 663.2821044921875 436.7575073242188 663.2821044921875 C 437.6895751953125 663.2821044921875 438.4478759765625 664.0403442382813 438.4478759765625 664.972412109375 L 438.4478759765625 668.2862548828125 C 438.4478759765625 671.2740478515625 436.0109558105469 673.704833984375 433.0155639648438 673.704833984375 Z" stroke="none" fill="#fff"/>
          </g>
        </g>
      </g>
    </g>
  </g>
</svg>
