<svg xmlns="http://www.w3.org/2000/svg" width="21.474" height="25.5" viewBox="0 0 21.474 25.5">
  <g id="Group_3493" data-name="Group 3493" transform="translate(0.579 0.5)">
    <path id="Union_30" data-name="Union 30" d="M7.111,24.426a.685.685,0,0,1-.619-.674c-.011-.526.619-.674.619-.674,3.265.369,3.807.253,4.947-1.686,1.711-3.688,4.949-3.035,4.949-3.035-3.794.221-4.021,2.7-4.021,2.7A4.726,4.726,0,0,1,8.094,24.5,5.881,5.881,0,0,1,7.111,24.426Zm.944-13.74a2,2,0,0,0,1.27-1.91,1.948,1.948,0,0,0-1.86-2.021A1.942,1.942,0,0,0,5.6,8.777a2,2,0,0,0,1.221,1.89V21.872L0,10.456,4.023,3.374h6.8l4.012,7.083L8.055,21.913ZM4.6,2.376a.883.883,0,0,1-.884-.884V.885A.884.884,0,0,1,4.6,0h5.632a.884.884,0,0,1,.884.885v.607a.883.883,0,0,1-.884.884Z" fill="#fff" stroke="rgba(0,0,0,0)" stroke-miterlimit="10" stroke-width="1"/>
  </g>
</svg>
