<svg xmlns="http://www.w3.org/2000/svg" width="31.005" height="14.776" viewBox="0 0 31.005 14.776">
  <g id="Group_3494" data-name="Group 3494" transform="translate(0 0)">
    <path id="Path_2972" data-name="Path 2972" d="M95.39,270.18H75.709a2.051,2.051,0,0,0-2.049,2.049v10.679a2.051,2.051,0,0,0,2.049,2.049H95.39a2.051,2.051,0,0,0,2.049-2.049V272.229A2.051,2.051,0,0,0,95.39,270.18ZM89.02,278l-5.091,3.489a.525.525,0,0,1-.82-.435v-6.978a.525.525,0,0,1,.82-.435l5.091,3.489A.522.522,0,0,1,89.02,278Z" transform="translate(-73.66 -270.18)" fill="#fff"/>
    <path id="Path_2973" data-name="Path 2973" d="M93.809,274.452l3.846-2.952a1.414,1.414,0,0,1,2.275,1.121v6.015a1.414,1.414,0,0,1-2.295,1.106l-3.846-3.063A1.414,1.414,0,0,1,93.809,274.452Z" transform="translate(-68.924 -269.932)" fill="#fff"/>
  </g>
</svg>
